<?xml version="1.0" encoding="UTF-8"?>
<svg width="32px" height="32px" viewBox="0 0 32 32" version="1.1" xmlns="http://www.w3.org/2000/svg" xmlns:xlink="http://www.w3.org/1999/xlink">
    <!-- Generator: Sketch 47.1 (45422) - http://www.bohemiancoding.com/sketch -->
    <title>facebook2</title>
    <desc>Created with Sketch.</desc>
    <defs></defs>
    <g id="Page-1" stroke="none" stroke-width="1" fill="none" fill-rule="evenodd">
        <g id="Desktop" transform="translate(-1183.000000, -688.000000)" fill-rule="nonzero" fill="#979797">
            <g id="SNS_links" transform="translate(1071.000000, 687.000000)">
                <g id="facebook" transform="translate(112.000000, 1.000000)">
                    <path d="M29,0 L3,0 C1.35,0 0,1.35 0,3 L0,29 C0,30.65 1.35,32 3,32 L16,32 L16,18 L12,18 L12,14 L16,14 L16,12 C16,8.694 18.694,6 22,6 L26,6 L26,10 L22,10 C20.9,10 20,10.9 20,12 L20,14 L26,14 L25,18 L20,18 L20,32 L29,32 C30.65,32 32,30.65 32,29 L32,3 C32,1.35 30.65,0 29,0 Z" id="Shape"></path>
                </g>
            </g>
        </g>
    </g>
</svg>