<?xml version="1.0" encoding="UTF-8"?>
<svg width="32px" height="32px" viewBox="0 0 32 32" version="1.1" xmlns="http://www.w3.org/2000/svg" xmlns:xlink="http://www.w3.org/1999/xlink">
    <!-- Generator: Sketch 47.1 (45422) - http://www.bohemiancoding.com/sketch -->
    <title>instagram</title>
    <desc>Created with Sketch.</desc>
    <defs></defs>
    <g id="Page-1" stroke="none" stroke-width="1" fill="none" fill-rule="evenodd">
        <g id="Desktop" transform="translate(-1127.000000, -688.000000)" fill-rule="nonzero" fill="#979797">
            <g id="SNS_links" transform="translate(1071.000000, 687.000000)">
                <g id="instagram" transform="translate(56.000000, 0.000000)">
                    <path d="M16,3.881 C20.275,3.881 20.781,3.9 22.462,3.975 C24.025,4.044 24.868,4.306 25.431,4.525 C26.175,4.813 26.712,5.163 27.268,5.719 C27.831,6.282 28.174,6.813 28.468,7.557 C28.687,8.12 28.949,8.969 29.018,10.526 C29.093,12.214 29.112,12.72 29.112,16.989 C29.112,21.258 29.093,21.77 29.018,23.452 C28.949,25.015 28.687,25.858 28.468,26.421 C28.18,27.165 27.831,27.702 27.274,28.258 C26.711,28.821 26.18,29.164 25.437,29.458 C24.874,29.677 24.024,29.939 22.468,30.008 C20.78,30.083 20.274,30.102 16.005,30.102 C11.736,30.102 11.224,30.083 9.542,30.008 C7.979,29.939 7.136,29.677 6.573,29.458 C5.829,29.17 5.292,28.821 4.735,28.264 C4.172,27.701 3.829,27.17 3.535,26.427 C3.316,25.864 3.054,25.014 2.985,23.458 C2.91,21.77 2.891,21.264 2.891,16.995 C2.891,12.726 2.91,12.214 2.985,10.532 C3.054,8.969 3.316,8.126 3.535,7.563 C3.823,6.819 4.173,6.282 4.729,5.725 C5.292,5.162 5.823,4.819 6.567,4.525 C7.13,4.306 7.979,4.044 9.536,3.975 C11.217,3.9 11.724,3.881 15.999,3.881 L16,3.881 Z M16,1 C11.656,1 11.113,1.019 9.406,1.094 C7.706,1.169 6.537,1.444 5.525,1.838 C4.469,2.25 3.575,2.794 2.688,3.688 C1.794,4.576 1.25,5.469 0.838,6.519 C0.444,7.538 0.169,8.7 0.094,10.4 C0.019,12.113 -1.77635684e-15,12.656 -1.77635684e-15,17 C-1.77635684e-15,21.344 0.019,21.887 0.094,23.594 C0.169,25.294 0.444,26.463 0.838,27.475 C1.251,28.531 1.794,29.425 2.688,30.312 C3.575,31.199 4.469,31.75 5.519,32.156 C6.538,32.55 7.7,32.825 9.4,32.9 C11.106,32.975 11.65,32.994 15.994,32.994 C20.338,32.994 20.882,32.975 22.588,32.9 C24.288,32.825 25.457,32.55 26.469,32.156 C27.519,31.75 28.413,31.2 29.3,30.312 C30.187,29.424 30.738,28.531 31.144,27.481 C31.538,26.462 31.813,25.3 31.888,23.6 C31.963,21.894 31.982,21.35 31.982,17.006 C31.982,12.662 31.963,12.119 31.888,10.412 C31.813,8.712 31.538,7.543 31.144,6.531 C30.75,5.468 30.206,4.575 29.313,3.687 C28.426,2.8 27.532,2.249 26.482,1.843 C25.463,1.449 24.301,1.174 22.601,1.099 C20.889,1.018 20.345,0.999 16.001,0.999 L16.001,0.999 L16,1 Z" id="Shape"></path>
                    <path d="M16,8.781 C11.463,8.781 7.781,12.462 7.781,17 C7.781,21.538 11.462,25.219 16,25.219 C20.538,25.219 24.219,21.538 24.219,17 C24.219,12.463 20.538,8.781 16,8.781 Z M16,22.331 C13.056,22.331 10.669,19.944 10.669,17 C10.669,14.056 13.056,11.669 16,11.669 C18.944,11.669 21.331,14.056 21.331,17 C21.331,19.944 18.944,22.331 16,22.331 Z" id="Shape"></path>
                    <path d="M26.462,8.456 C26.462,9.516 25.603,10.375 24.543,10.375 C23.483,10.375 22.624,9.516 22.624,8.456 C22.624,7.396 23.483,6.537 24.543,6.537 C25.603,6.537 26.462,7.396 26.462,8.456 L26.462,8.456 Z" id="Shape"></path>
                </g>
            </g>
        </g>
    </g>
</svg>